:SAMPLES-PER-SECOND 30
:FULLY-SPECIFIED
:DEGREES
269
root  34.96432868 36.49360176 -14.82728072 10.58089352 8.692274094 3.696751595
lowerback  -8.36068058 2.968100071 3.018760681
upperback  -4.337049961 3.382329941 -4.253059864
thorax  0.6188650131 1.44291997 -5.820670128
lowerneck  -16.22870064 4.195859909 6.598680019
upperneck  16.78540039 3.153879881 3.304330111
head  7.95717001 2.147799969 0.3755191565
lclavicle  0 -4.497500157e-015 -2.743230041e-014
lhumerus  -43.74150085 24.99889946 69.60089874
lradius  -0.2149151415 -6.507048965e-006 26.57189941
lwrist  4.824992743e-007 -3.790274832e-007 -31.31380081
lhand  -4.419541843e-031 -36.96720123 -10.38029957
lfingers  90 7.125020027 -90
lthumb  94.78460285 -25.2192499 101.1139209
rclavicle  0 -4.497500157e-015 -2.743230041e-014
rhumerus  54.60879517 14.25850105 -52.22290421
rradius  -5.16745672e-007 2.214343908e-008 57.44689941
rwrist  -3.062178075e-005 0.01194404531 -169.753006
rhand  -1.767612612e-031 2.759769917 -5.35367012
rfingers  -90 -7.125020027 -90
rthumb  -84.37934459 -10.33840874 -61.26012046
rfemur  -13.45636272 12.15756416 14.67635918
rtibia  -2.136963606 2.338843346 23.05342865
rfoot  -2.046180248 -15.54976845 -43.49465179
rtoes  3.789500055 19.65216168 -101.141769
lfemur  -11.77701664 -21.74828339 -18.03330612
ltibia  2.64589715 1.865988255 15.70717239
lfoot  0.8069288135 -29.18738937 31.63499641
ltoes  -8.627379233 -18.1126513 -116.0141752
270
root  34.96431065 36.49397122 -14.82747596 10.58203983 8.671190262 3.666428804
lowerback  -8.355729103 2.941620111 2.953259468
upperback  -4.339348793 3.35010004 -4.250677109
thorax  0.6044350266 1.426509976 -5.78550005
lowerneck  -16.18790054 4.096509933 6.477379799
upperneck  16.85659981 3.04583025 3.309849977
head  7.969220161 2.089649916 0.3837289512
lclavicle  0 -4.497500157e-015 -2.743230041e-014
lhumerus  -43.7845993 25.07290077 69.58540344
lradius  -0.2164891809 -6.507048965e-006 26.58580017
lwrist  4.824992743e-007 -3.790274832e-007 -31.30450058
lhand  -4.421278997e-031 -36.99710083 -10.40019989
lfingers  90 7.125020027 -90
lthumb  94.80267051 -25.23774187 101.1475836
rclavicle  0 -4.497500157e-015 -2.743230041e-014
rhumerus  53.64319992 14.39759922 -51.98680115
rradius  -5.16745672e-007 2.214343908e-008 58.85430145
rwrist  -3.062178075e-005 0.01194404531 -169.9920044
rhand  -1.767943699e-031 2.974050045 -5.416100025
rfingers  -90 -7.125020027 -90
rthumb  -84.35617278 -10.29343166 -61.05545454
rfemur  -13.46411896 12.15780163 14.69670773
rtibia  -2.117343664 2.370300293 23.04055405
rfoot  -2.024245262 -15.52521515 -43.44776154
rtoes  3.805782822 19.64913484 -101.1901887
lfemur  -11.76820755 -21.69495392 -17.99638557
ltibia  2.638024807 1.893736005 15.68793583
lfoot  0.7971246839 -29.22626114 31.63137436
ltoes  -8.64716539 -18.10346021 -116.0778352
271
root  34.96370991 36.49421452 -14.8274249 10.58202267 8.648165703 3.642092943
lowerback  -8.374250412 2.91099 2.899540424
upperback  -4.341361046 3.310889959 -4.248849869
thorax  0.6036930084 1.406659961 -5.755020142
lowerneck  -16.13820076 3.972490072 6.295670033
upperneck  16.94650078 2.899209976 3.396929979
head  7.983409882 2.016429901 0.4240741134
lclavicle  0 -4.497500157e-015 -2.743230041e-014
lhumerus  -43.88019943 25.11039925 69.56569672
lradius  -0.2180638909 -6.507048965e-006 26.65239716
lwrist  4.824992743e-007 -3.790274832e-007 -31.27759933
lhand  -4.420616235e-031 -36.9856987 -10.42650032
lfingers  90 7.125020027 -90
lthumb  94.80301312 -25.26397725 101.1378152
rclavicle  0 -4.497500157e-015 -2.743230041e-014
rhumerus  52.66119766 14.41940117 -52.13249969
rradius  -5.16745672e-007 2.214343908e-008 60.10189819
rwrist  -3.062178075e-005 0.01194404531 -170.6049957
rhand  -1.768131753e-031 3.089119911 -4.974460125
rfingers  -90 -7.125020027 -90
rthumb  -84.10892776 -10.68472188 -60.90292682
rfemur  -13.48293877 12.17243481 14.70695496
rtibia  -2.102871895 2.380963087 23.04778481
rfoot  -2.023732901 -15.54622364 -43.42717361
rtoes  3.786257412 19.65276285 -101.1321273
lfemur  -11.75651169 -21.63345337 -17.97049713
ltibia  2.631056547 1.913406849 15.6638031
lfoot  0.7837616801 -29.24563217 31.62556839
ltoes  -8.647391629 -18.10335497 -116.0785632
272
root  34.9625655 36.49494441 -14.82750299 10.59180164 8.599725723 3.619240761
lowerback  -8.371391296 2.889689922 2.852320671
upperback  -4.341249943 3.28512001 -4.249199867
thorax  0.5993409753 1.393939972 -5.731060028
lowerneck  -16.20779991 3.801939964 6.179629803
upperneck  17.07410049 2.678299904 3.404239893
head  8.032970428 1.906890035 0.4216260612
lclavicle  0 -4.497500157e-015 -2.743230041e-014
lhumerus  -43.92300034 25.04710007 69.5904007
lradius  -0.2196406424 -6.507048965e-006 26.70050049
lwrist  4.824992743e-007 -3.790274832e-007 -31.15710258
lhand  -4.420796467e-031 -36.98880005 -10.47949982
lfingers  90 7.125020027 -90
lthumb  94.81579573 -25.31592275 101.1459791
rclavicle  0 -4.497500157e-015 -2.743230041e-014
rhumerus  51.71780014 14.53759956 -52.1711998
rradius  -5.16745672e-007 2.214343908e-008 61.35480118
rwrist  -3.062178075e-005 0.01194404531 -170.621994
rhand  -0 2.977999926 -4.927360058
rfingers  -90 -7.125020027 -90
rthumb  -84.11441704 -10.72123274 -61.00774743
rfemur  -13.49677658 12.22270679 14.71579456
rtibia  -2.08513999 2.400444508 23.03059959
rfoot  -2.01677537 -15.53601742 -43.43415833
rtoes  3.775744678 19.65470817 -101.1008705
lfemur  -11.78909492 -21.62863922 -17.92927933
ltibia  2.60274148 1.905278444 15.6862793
lfoot  0.7716539502 -29.22239494 31.65503693
ltoes  -8.665291673 -18.09501701 -116.1361821
273
root  34.96225312 36.4948483 -14.82765468 10.56890202 8.544143677 3.564786911
lowerback  -8.399511337 2.861669779 2.774920225
upperback  -4.336279869 3.250669956 -4.264309883
thorax  0.6125900149 1.37677002 -5.7051301
lowerneck  -16.26889992 3.644850016 6.066899776
upperneck  17.17370033 2.483659983 3.388190031
head  8.072480202 1.807629943 0.4133929014
lclavicle  0 -4.497500157e-015 -2.743230041e-014
lhumerus  -43.92620087 24.92790031 69.65609741
lradius  -0.2212191224 -6.507048965e-006 26.75569916
lwrist  4.824992743e-007 -3.790274832e-007 -30.8778019
lhand  -4.420465287e-031 -36.98310089 -10.44009972
lfingers  90 7.125020027 -90
lthumb  94.8047209 -25.27743256 101.1362918
rclavicle  0 -4.497500157e-015 -2.743230041e-014
rhumerus  50.66680145 14.56740093 -52.16090012
rradius  -5.16745672e-007 2.214343908e-008 62.71429825
rwrist  -3.062178075e-005 0.01194404531 -171.2389984
rhand  -1.767818571e-031 2.894939899 -4.727600098
rfingers  -90 -7.125020027 -90
rthumb  -84.03753935 -10.89259298 -61.07081049
rfemur  -13.47342587 12.24750233 14.75594234
rtibia  -2.05572319 2.424942732 22.97430229
rfoot  -1.966504574 -15.52508163 -43.36935043
rtoes  3.796305749 19.6508982 -101.162006
lfemur  -11.84040737 -21.6055584 -17.84104729
ltibia  2.530567169 1.904581189 15.79147816
lfoot  0.7677125931 -29.2667942 31.68419456
ltoes  -8.605122327 -18.12295863 -115.9426031
